<svg width="99" height="15" viewBox="0 0 99 15" fill="none" xmlns="http://www.w3.org/2000/svg">
<path d="M0.643205 13.0487L1.13901 12.6819C1.21941 12.7895 1.19038 12.8653 1.05191 12.9093C0.913441 12.9533 0.777206 12.9998 0.643205 13.0487ZM99 13.2981C98.9553 13.3177 98.8973 13.3348 98.8258 13.3495C98.7543 13.3641 98.7097 13.3862 98.6918 13.4155C98.6829 13.4351 98.7097 13.4595 98.7722 13.4888C98.8347 13.5182 98.8928 13.5524 98.9464 13.5915L98.5444 13.7529C98.3389 13.7334 98.1982 13.6918 98.1223 13.6282C98.0464 13.5647 97.9682 13.4986 97.8878 13.4302C97.8163 13.3715 97.7404 13.3152 97.66 13.2614C97.5796 13.2076 97.4947 13.1612 97.4054 13.1221L97.392 13.1074C97.3205 13.0683 97.2379 13.0438 97.1441 13.034C97.0503 13.0243 96.9677 13.0438 96.8962 13.0927C96.8336 13.1416 96.8091 13.1832 96.8225 13.2174C96.8359 13.2517 96.9141 13.2786 97.057 13.2981C97.1017 13.3079 97.1307 13.3372 97.1441 13.3862C97.1575 13.4351 97.1821 13.484 97.2178 13.5329C97.1463 13.5329 97.0927 13.5329 97.057 13.5329C97.0213 13.5329 96.9945 13.528 96.9766 13.5182C96.6192 13.2835 96.2373 13.0609 95.8309 12.8506C95.4244 12.6404 94.9934 12.4423 94.5378 12.2565C94.368 12.1782 94.2184 12.0951 94.0889 12.007C93.9593 11.919 93.8231 11.831 93.6802 11.743C93.6087 11.7038 93.535 11.6647 93.4591 11.6256C93.3831 11.5865 93.2692 11.5914 93.1174 11.6403C93.1084 11.6403 93.0973 11.6403 93.0839 11.6403C93.0705 11.6403 93.0548 11.6403 93.037 11.6403C93.0191 11.6403 92.9967 11.6403 92.97 11.6403C92.9432 11.6403 92.9208 11.6354 92.903 11.6256C92.7243 11.5865 92.5456 11.5449 92.367 11.5009C92.1883 11.4569 92.0096 11.4104 91.8309 11.3615C91.8041 11.3615 91.7751 11.3591 91.7438 11.3542C91.7126 11.3493 91.6925 11.3419 91.6835 11.3322C91.5942 11.2148 91.4468 11.1512 91.2413 11.1414C91.0359 11.1317 90.8349 11.1121 90.6383 11.0827C90.4954 11.0632 90.3569 11.0338 90.2229 10.9947C90.0889 10.9556 89.9549 10.9214 89.8209 10.892C89.6423 10.8431 89.4636 10.7967 89.2849 10.7526C89.1063 10.7086 88.9231 10.6671 88.7355 10.6279C88.1638 10.5008 87.5898 10.3761 87.0136 10.2538C86.4374 10.1316 85.8679 10.002 85.3051 9.86502C84.9567 9.78678 84.6038 9.70853 84.2465 9.63028C83.8891 9.55203 83.5296 9.47623 83.1678 9.40288C82.806 9.32952 82.4419 9.25861 82.0757 9.19014C81.7094 9.12167 81.3476 9.05321 80.9903 8.98474C80.6687 8.91628 80.3515 8.8527 80.0388 8.79401C79.7262 8.73533 79.409 8.67664 79.0874 8.61796C78.7837 8.56905 78.4777 8.51526 78.1695 8.45657C77.8613 8.39789 77.542 8.35387 77.2114 8.32453C77.0417 8.31475 76.8742 8.29519 76.7089 8.26585C76.5437 8.2365 76.3806 8.20716 76.2198 8.17782C76.0233 8.14847 75.8245 8.12158 75.6235 8.09712C75.4225 8.07267 75.2237 8.05067 75.0272 8.0311C74.8753 8.00176 74.7235 7.97242 74.5716 7.94308C74.4197 7.91373 74.2679 7.88928 74.116 7.86972C73.9552 7.85994 73.7966 7.8526 73.6403 7.84771C73.484 7.84282 73.3254 7.8257 73.1646 7.79636C72.9413 7.75724 72.7045 7.73034 72.4544 7.71567C72.2043 7.701 71.9586 7.67899 71.7174 7.64965C71.5834 7.63987 71.4538 7.62275 71.3288 7.5983C71.2037 7.57385 71.0742 7.55673 70.9402 7.54695C70.7794 7.53717 70.6186 7.52739 70.4578 7.51761C70.297 7.50782 70.1362 7.49804 69.9754 7.48826C69.627 7.45892 69.2808 7.43447 68.9369 7.41491C68.5929 7.39534 68.2467 7.37089 67.8984 7.34155C67.3355 7.30243 66.7727 7.25841 66.2099 7.20951C65.6471 7.1606 65.0799 7.1117 64.5081 7.06279C64.2759 7.04323 64.0168 7.02612 63.7309 7.01144C63.445 6.99677 63.1502 6.98455 62.8465 6.97477H62.7795C62.5026 6.96498 62.1854 6.95031 61.8281 6.93075C61.4618 6.92097 61.071 6.91119 60.6556 6.90141C60.2402 6.89163 59.8047 6.87696 59.3491 6.85739C58.8845 6.84761 58.42 6.83783 57.9555 6.82805H57.4597C57.1113 6.81827 56.7405 6.81094 56.3475 6.80604C55.9544 6.80115 55.5524 6.79871 55.1414 6.79871C54.8466 6.79871 54.5474 6.79871 54.2436 6.79871C53.9399 6.79871 53.6406 6.8036 53.3458 6.81338H53.4396C53.0555 6.82316 52.6758 6.82561 52.3006 6.82072C51.9254 6.81583 51.5502 6.81827 51.175 6.82805C50.6658 6.84761 50.1566 6.86228 49.6474 6.87207C49.1382 6.88185 48.6379 6.92097 48.1466 6.98944C47.959 7.009 47.7647 7.02367 47.5637 7.03345C47.3627 7.04323 47.1639 7.05301 46.9674 7.06279C46.8959 7.07257 46.8222 7.07991 46.7463 7.0848C46.6703 7.08969 46.5966 7.09703 46.5252 7.10681C46.4894 7.10681 46.4492 7.1117 46.4046 7.12148C46.3599 7.13126 46.3286 7.13615 46.3108 7.13615C46.1321 7.0579 45.9445 7.03345 45.748 7.06279C45.5514 7.09214 45.3594 7.10192 45.1718 7.09214C45.1628 7.09214 45.1517 7.09214 45.1383 7.09214C45.1249 7.09214 45.1137 7.09214 45.1048 7.09214C45.069 7.09214 45.0311 7.09214 44.9909 7.09214C44.9507 7.09214 44.9127 7.09703 44.877 7.10681H44.8904C44.542 7.19484 44.1824 7.25108 43.8117 7.27553C43.4409 7.29998 43.0679 7.32199 42.6927 7.34155C42.4873 7.36111 42.2863 7.38556 42.0897 7.41491C41.8932 7.44425 41.6967 7.4687 41.5001 7.48826C41.1071 7.53717 40.7095 7.58118 40.3075 7.62031C39.9055 7.65943 39.5035 7.69855 39.1015 7.73768C38.9318 7.75724 38.7598 7.77435 38.5856 7.78903C38.4114 7.8037 38.2394 7.82081 38.0697 7.84038C37.9089 7.85994 37.7503 7.8795 37.594 7.89906C37.4377 7.91862 37.2836 7.94308 37.1317 7.97242C36.7922 8.0311 36.4528 8.08734 36.1133 8.14114C35.7738 8.19493 35.4344 8.25117 35.0949 8.30986C35.086 8.30986 35.077 8.3123 35.0681 8.31719C35.0592 8.32209 35.0502 8.32453 35.0413 8.32453C34.7822 8.30497 34.541 8.32209 34.3177 8.37588C34.0943 8.42968 33.8621 8.46146 33.6209 8.47124C33.4869 8.47124 33.3618 8.48836 33.2457 8.52259C33.1295 8.55683 33.0045 8.58372 32.8705 8.60329C32.665 8.64241 32.4528 8.6742 32.234 8.69865C32.0151 8.7231 31.8029 8.75489 31.5975 8.79401C31.1955 8.87226 30.7934 8.95051 30.3914 9.02876C29.9894 9.107 29.583 9.18036 29.172 9.24883C28.8862 9.30751 28.6003 9.35642 28.3144 9.39554C28.0286 9.43466 27.7427 9.47379 27.4568 9.51291C27.3675 9.53247 27.2826 9.54959 27.2022 9.56426C27.1218 9.57893 27.0414 9.59116 26.961 9.60094C26.7556 9.64984 26.5478 9.6963 26.3379 9.74032C26.128 9.78433 25.9203 9.83079 25.7148 9.87969C25.7059 9.87969 25.6969 9.88214 25.688 9.88703C25.6791 9.89192 25.6701 9.89437 25.6612 9.89437C25.3664 9.83568 25.114 9.84546 24.9041 9.92371C24.6942 10.002 24.4731 10.0606 24.2408 10.0998C23.9996 10.1291 23.7718 10.1756 23.5574 10.2391C23.343 10.3027 23.1241 10.359 22.9008 10.4079C22.8383 10.4274 22.7668 10.4421 22.6864 10.4519C22.606 10.4617 22.5211 10.4714 22.4318 10.4812H22.4184C22.1504 10.5106 21.8891 10.5424 21.6345 10.5766C21.3799 10.6108 21.1364 10.6622 20.9042 10.7306C20.6808 10.7991 20.4463 10.8627 20.2007 10.9214C19.955 10.98 19.7071 11.0338 19.457 11.0827C18.912 11.1708 18.3916 11.2833 17.8958 11.4202C17.4 11.5571 16.8975 11.6892 16.3883 11.8163C16.1382 11.875 15.897 11.9386 15.6647 12.007C15.4325 12.0755 15.2047 12.144 14.9813 12.2124C14.8205 12.2613 14.6486 12.3005 14.4654 12.3298C14.2823 12.3592 14.1014 12.3934 13.9227 12.4325C13.878 12.4423 13.8334 12.4521 13.7887 12.4619C13.744 12.4716 13.7038 12.4863 13.6681 12.5059C13.4001 12.6428 13.0964 12.7626 12.7569 12.8653C12.4174 12.968 12.0824 13.0732 11.7519 13.1808C11.5732 13.2394 11.4057 13.2981 11.2494 13.3568C11.0931 13.4155 10.8988 13.4546 10.6665 13.4742C10.6397 13.4742 10.6151 13.4888 10.5928 13.5182C10.5705 13.5475 10.537 13.5769 10.4923 13.6062L11.0149 13.5769L10.3449 13.885L8.99147 13.7089C9.08081 13.6502 9.17684 13.6013 9.27958 13.5622C9.38231 13.5231 9.38901 13.4742 9.29967 13.4155C9.45154 13.4057 9.54311 13.3959 9.57438 13.3862C9.60564 13.3764 9.64361 13.3372 9.68828 13.2688L9.25947 13.3715L9.54088 13.0487C9.57661 13.0389 9.61458 13.034 9.65478 13.034C9.69498 13.034 9.74188 13.0291 9.79548 13.0194L9.67488 12.7993C9.63021 12.7993 9.58778 12.8017 9.54758 12.8066C9.50738 12.8115 9.47388 12.8189 9.44708 12.8286C9.25054 12.9167 9.05401 13.0022 8.85747 13.0854C8.66094 13.1685 8.45994 13.2492 8.25447 13.3275C8.2098 13.347 8.15843 13.3617 8.10037 13.3715C8.0423 13.3813 7.982 13.3862 7.91946 13.3862C7.9016 13.3862 7.8882 13.3862 7.87926 13.3862C7.87033 13.3862 7.85693 13.3862 7.83906 13.3862H7.85246C7.69166 13.3764 7.55319 13.3862 7.43706 13.4155C7.32093 13.4448 7.22713 13.484 7.15566 13.5329C7.07526 13.5915 6.98816 13.638 6.89436 13.6722C6.80056 13.7065 6.70005 13.7285 6.59285 13.7383C6.32485 13.7676 6.09705 13.8263 5.90945 13.9143C5.72185 14.0023 5.53425 14.0855 5.34664 14.1637C5.12331 14.2615 4.90891 14.3667 4.70344 14.4792C4.49797 14.5916 4.29697 14.7017 4.10043 14.8093L3.37683 14.7653L3.81903 14.4278C3.93517 14.4376 4.0379 14.4523 4.12723 14.4718C4.21657 14.4914 4.28357 14.4914 4.32824 14.4718C4.40864 14.4621 4.46447 14.44 4.49574 14.4058C4.527 14.3716 4.49797 14.33 4.40864 14.2811C4.38184 14.2615 4.37067 14.2346 4.37514 14.2004C4.3796 14.1662 4.39524 14.1393 4.42204 14.1197C4.48457 14.0708 4.55827 14.0244 4.64314 13.9803C4.728 13.9363 4.81064 13.8899 4.89104 13.841C5.24838 13.6453 5.50298 13.506 5.65485 13.4228C5.80671 13.3397 5.94071 13.2639 6.05685 13.1954L5.57445 13.4448C5.59231 13.4351 5.61018 13.4228 5.62805 13.4082C5.64591 13.3935 5.66378 13.3862 5.68165 13.3862C5.94071 13.3666 6.11492 13.3079 6.20425 13.2101C6.29358 13.1123 6.44099 13.0194 6.64645 12.9313L6.00325 12.9607C6.07472 12.8335 6.09482 12.7577 6.06355 12.7333C6.03228 12.7088 5.88711 12.6868 5.62805 12.6673C5.61018 12.7748 5.54318 12.8678 5.42704 12.946C5.31091 13.0243 5.15457 13.1025 4.95804 13.1808C4.66324 13.2786 4.38407 13.3886 4.12053 13.5109C3.857 13.6331 3.59123 13.7529 3.32323 13.8703C3.26069 13.9094 3.20039 13.9461 3.14233 13.9803C3.08426 14.0146 3.03289 14.0561 2.98822 14.105V14.0904C2.90782 14.1686 2.80509 14.2322 2.68002 14.2811C2.55495 14.33 2.41649 14.3642 2.26462 14.3838C2.01448 14.4131 1.84698 14.4669 1.76211 14.5452C1.67725 14.6234 1.59461 14.7017 1.51421 14.7799C1.46955 14.8191 1.43604 14.8606 1.41371 14.9046C1.39138 14.9487 1.31321 14.9804 1.17921 15C1.08094 14.9218 1.06978 14.8484 1.14571 14.7799C1.22164 14.7115 1.28194 14.643 1.32661 14.5745C1.35341 14.5158 1.36234 14.4645 1.35341 14.4205C1.34448 14.3765 1.31768 14.33 1.27301 14.2811C1.67501 14.2615 1.92068 14.2298 2.01002 14.1857C2.09935 14.1417 2.17528 14.0219 2.23782 13.8263L1.54101 13.7823L1.21941 13.4595L0.884407 13.4302C0.884407 13.4204 0.882174 13.4106 0.877707 13.4008C0.87324 13.391 0.871007 13.3813 0.871007 13.3715C0.924608 13.3226 0.978208 13.2712 1.03181 13.2174C1.08541 13.1636 1.13008 13.1123 1.16581 13.0634C1.20154 13.0047 1.25291 12.9558 1.31991 12.9167C1.38691 12.8775 1.46955 12.8433 1.56781 12.814C1.74648 12.7553 1.89835 12.6868 2.02342 12.6086C2.14848 12.5303 2.23335 12.4423 2.27802 12.3445C2.19762 12.3249 2.10382 12.3054 1.99662 12.2858C1.88942 12.2662 1.83581 12.2467 1.83581 12.2271C1.83581 12.1782 1.86262 12.1317 1.91622 12.0877C1.96982 12.0437 2.01448 12.0022 2.05022 11.963C2.07702 11.9435 2.09935 11.9215 2.11722 11.897C2.13508 11.8726 2.13955 11.8408 2.13062 11.8016C1.88942 11.8897 1.63928 11.9679 1.38021 12.0364C1.12114 12.1049 0.938008 12.2173 0.830807 12.3738C0.78614 12.4423 0.685639 12.4716 0.529304 12.4619C0.37297 12.4521 0.196535 12.4081 0 12.3298C0.0625338 12.2222 0.156335 12.1195 0.281402 12.0217C0.40647 11.9239 0.553871 11.831 0.723606 11.743C0.920141 11.6451 1.12338 11.5473 1.33331 11.4495C1.54325 11.3517 1.71075 11.2392 1.83581 11.1121C1.89835 11.0436 1.98992 10.9825 2.11052 10.9287C2.23112 10.8749 2.33609 10.8138 2.42542 10.7453C2.49689 10.6964 2.55272 10.6451 2.59292 10.5913C2.63312 10.5375 2.63089 10.4763 2.58622 10.4079C2.53262 10.3296 2.55495 10.2856 2.65322 10.2758C2.75149 10.266 2.86762 10.2709 3.00162 10.2905C3.00162 10.2612 3.00386 10.2367 3.00832 10.2171C3.01279 10.1976 3.00609 10.178 2.98822 10.1585C2.91676 10.09 2.83859 10.0533 2.75372 10.0484C2.66885 10.0435 2.57282 10.0655 2.46562 10.1144C2.39415 10.1438 2.32492 10.1756 2.25792 10.2098C2.19092 10.244 2.12168 10.2758 2.05022 10.3052L1.94302 10.2612C2.04128 10.2122 2.13508 10.1585 2.22442 10.0998C2.31375 10.0411 2.41202 9.98729 2.51922 9.93838C2.61749 9.88948 2.70012 9.84302 2.76712 9.799C2.83412 9.75499 2.83636 9.69386 2.77382 9.61561C2.73809 9.57649 2.75596 9.52514 2.82742 9.46156C2.89889 9.39799 2.96142 9.33196 3.01502 9.2635L3.45723 9.39554C3.50189 9.3662 3.55103 9.33441 3.60463 9.30018C3.65823 9.26594 3.7029 9.22926 3.73863 9.19014C3.77436 9.1608 3.79893 9.12412 3.81233 9.08011C3.82573 9.03609 3.85923 8.99941 3.91283 8.97007C4.1183 8.89182 4.30367 8.80869 4.46894 8.72066C4.6342 8.63263 4.80171 8.53971 4.97144 8.4419C4.98931 8.43212 5.02951 8.42723 5.09204 8.42723C5.15457 8.42723 5.21711 8.42723 5.27964 8.42723L5.14564 8.25117C5.18138 8.24139 5.21041 8.23161 5.23274 8.22183C5.25508 8.21205 5.27964 8.20716 5.30644 8.20716C5.58338 8.17782 5.82235 8.12891 6.02335 8.06045C6.22435 7.99198 6.40078 7.90395 6.55265 7.79636C6.57945 7.7768 6.59732 7.75724 6.60625 7.73768C6.61519 7.71811 6.62412 7.69855 6.63305 7.67899C6.64199 7.66921 6.64422 7.65209 6.63975 7.62764C6.63529 7.60319 6.64199 7.59096 6.65985 7.59096C6.87426 7.55184 7.03729 7.48582 7.14896 7.3929C7.26063 7.29998 7.40579 7.22418 7.58446 7.16549C8.12047 6.98944 8.64977 6.80604 9.17237 6.61532C9.69498 6.42459 10.2198 6.23631 10.7469 6.05047C11.0238 5.96244 11.2985 5.86952 11.571 5.77171C11.8435 5.6739 12.1182 5.5761 12.3951 5.47829C12.4755 5.45872 12.5648 5.43916 12.6631 5.4196C12.7614 5.40004 12.8552 5.37559 12.9445 5.34624C13.1857 5.268 13.4224 5.19219 13.6547 5.11884C13.887 5.04548 14.1192 4.96968 14.3515 4.89143C14.6017 4.96968 14.7669 5.01125 14.8473 5.01614C14.9277 5.02103 15.0707 4.99413 15.2761 4.93545C15.1689 4.84742 15.1265 4.76673 15.1488 4.69337C15.1712 4.62001 15.2851 4.55888 15.4905 4.50998L15.0751 4.56866L15.0081 4.50998L15.6781 4.33392L15.7585 4.37793L15.5441 4.48063C15.6424 4.48063 15.7407 4.47819 15.8389 4.4733C15.9372 4.46841 16.031 4.46596 16.1203 4.46596C16.2097 4.45618 16.2901 4.45129 16.3615 4.45129C16.433 4.45129 16.4732 4.41706 16.4821 4.34859C16.4821 4.33881 16.5313 4.32169 16.6295 4.29724C16.7278 4.27279 16.8037 4.26545 16.8573 4.27524C17.0181 4.30458 17.1119 4.29724 17.1387 4.25323C17.1655 4.20921 17.2057 4.16765 17.2593 4.12852C17.304 4.14808 17.3487 4.1652 17.3933 4.17987C17.438 4.19454 17.4782 4.20677 17.5139 4.21655C17.6122 4.27524 17.7127 4.3168 17.8154 4.34126C17.9182 4.36571 18.0365 4.33881 18.1705 4.26056C18.2152 4.241 18.2576 4.22633 18.2978 4.21655C18.338 4.20677 18.3805 4.20188 18.4251 4.20188C18.4251 4.20188 18.4274 4.20188 18.4318 4.20188C18.4363 4.20188 18.4385 4.20188 18.4385 4.20188C18.6976 4.20188 18.9165 4.17009 19.0952 4.10651C19.2738 4.04294 19.448 3.98181 19.6178 3.92312C19.6178 3.86444 19.6066 3.80575 19.5843 3.74707C19.5619 3.68838 19.5731 3.63948 19.6178 3.60035C19.6892 3.56123 19.7875 3.52944 19.9126 3.50499C20.0376 3.48054 20.1538 3.45364 20.261 3.4243H20.2744H20.3012V3.43897L20.7434 3.49765C20.7076 3.46831 20.6808 3.44141 20.663 3.41696C20.6451 3.39251 20.6228 3.3705 20.596 3.35094L21.199 3.20423L21.467 3.46831C21.8243 3.42919 22.1638 3.37784 22.4854 3.31426C22.807 3.25068 23.142 3.18466 23.4904 3.1162L23.209 2.99883C23.2894 2.98905 23.3698 2.97437 23.4502 2.95481C23.5306 2.93525 23.5931 2.93036 23.6378 2.94014C23.7897 2.96948 23.9058 2.96948 23.9862 2.94014C24.0666 2.9108 24.1381 2.86678 24.2006 2.8081C24.415 2.87656 24.6071 2.89368 24.7768 2.85945C24.9465 2.82522 25.1073 2.77387 25.2592 2.7054C25.42 2.73474 25.5674 2.74941 25.7014 2.74941C25.8354 2.74941 25.9739 2.71029 26.1168 2.63204C26.2061 2.58314 26.3312 2.54891 26.492 2.52934C26.6528 2.50978 26.8002 2.48533 26.9342 2.45599C27.0504 2.43642 27.1687 2.41686 27.2893 2.3973C27.4099 2.37774 27.5238 2.3484 27.631 2.30927C27.7025 2.28971 27.7673 2.27504 27.8253 2.26526C27.8834 2.25548 27.9571 2.26037 28.0464 2.27993C28.1447 2.29949 28.2318 2.30194 28.3077 2.28727C28.3837 2.27259 28.4484 2.2457 28.502 2.20657C28.636 2.10876 28.808 2.05497 29.0179 2.04519C29.2279 2.03541 29.4356 2.02563 29.641 2.01585C29.7304 2.00606 29.8242 2.00117 29.9224 2.00117C30.0207 2.00117 30.11 1.99139 30.1904 1.97183C30.6014 1.90337 31.0123 1.83001 31.4233 1.75176C31.8342 1.67351 32.263 1.6295 32.7097 1.61972C32.8973 1.60994 33.0849 1.59038 33.2725 1.56103C33.4601 1.53169 33.6521 1.54147 33.8487 1.59038C34.0273 1.53169 34.235 1.50968 34.4718 1.52435C34.7085 1.53903 34.8939 1.48279 35.0279 1.35563C35.0726 1.30673 35.1485 1.28717 35.2557 1.29695C35.3629 1.30673 35.4567 1.33118 35.5371 1.37031C35.6354 1.40943 35.7202 1.42655 35.7917 1.42166C35.8632 1.41677 35.9346 1.38987 36.0061 1.34096C36.0508 1.31162 36.0977 1.28717 36.1468 1.26761C36.1959 1.24804 36.2518 1.23826 36.3143 1.23826C36.5287 1.2187 36.7431 1.19914 36.9575 1.17958C37.1719 1.16002 37.3908 1.16491 37.6141 1.19425C37.6856 1.19425 37.7503 1.19669 37.8084 1.20158C37.8665 1.20648 37.9268 1.18447 37.9893 1.13556C38.034 1.10622 38.1188 1.0891 38.2439 1.08421C38.369 1.07932 38.4806 1.07199 38.5789 1.06221C38.7933 1.04265 39.0099 1.02553 39.2288 1.01086C39.4477 0.996186 39.6733 0.97907 39.9055 0.959507C40.0038 1.05732 40.1467 1.09644 40.3343 1.07688C40.5219 1.05732 40.6961 1.04265 40.8569 1.03286C41.1428 1.0133 41.4264 0.986405 41.7078 0.952171C41.9892 0.917938 42.2729 0.88615 42.5587 0.856808C42.7463 0.837246 42.9339 0.822575 43.1215 0.812794C43.3092 0.803013 43.5012 0.793232 43.6978 0.783451C44.198 0.763889 44.7005 0.749218 45.2053 0.739437C45.71 0.729656 46.2125 0.719875 46.7128 0.710094C47.2488 0.700314 47.7826 0.695423 48.3141 0.695423C48.8456 0.695423 49.3794 0.695423 49.9154 0.695423C50.3889 0.695423 50.8601 0.697868 51.3291 0.702759C51.7981 0.707649 52.2649 0.714985 52.7294 0.724766C52.9796 0.734547 53.2319 0.744328 53.4865 0.754108C53.7411 0.763889 53.9935 0.77367 54.2436 0.783451C54.8154 0.793232 55.3893 0.810349 55.9656 0.834801C56.5418 0.859253 57.1113 0.900822 57.6741 0.959507C57.8795 0.97907 58.085 0.993741 58.2905 1.00352C58.4959 1.0133 58.7103 1.0133 58.9337 1.00352C59.0587 1.00352 59.186 1.01575 59.3156 1.0402C59.4451 1.06465 59.5769 1.08177 59.7109 1.09155C60.0772 1.12089 60.4434 1.1429 60.8097 1.15757C61.176 1.17224 61.5422 1.19425 61.9085 1.22359C62.3373 1.26272 62.7616 1.30184 63.1815 1.34096C63.6014 1.38009 64.0213 1.41921 64.4411 1.45833C64.727 1.4779 65.0129 1.50235 65.2987 1.53169C65.5846 1.56103 65.8705 1.59038 66.1563 1.61972C66.4511 1.64906 66.7459 1.6784 67.0407 1.70775C67.3355 1.73709 67.6259 1.77132 67.9118 1.81045C68.421 1.87891 68.9257 1.94982 69.426 2.02318C69.9262 2.09654 70.4265 2.16745 70.9268 2.23592C71.4092 2.31416 71.8894 2.39241 72.3673 2.47066C72.8452 2.54891 73.3254 2.62715 73.8078 2.7054C74.0579 2.7543 74.3125 2.79832 74.5716 2.83744C74.8307 2.87656 75.0853 2.92547 75.3354 2.98416H74.9334C75.1121 3.10153 75.2729 3.17244 75.4158 3.19689C75.5587 3.22134 75.7776 3.21401 76.0724 3.17488C76.1081 3.21401 76.1349 3.25558 76.1528 3.29959C76.1707 3.3436 76.26 3.36072 76.4208 3.35094L76.5414 3.17488C76.6218 3.31182 76.7402 3.41696 76.8965 3.49032C77.0529 3.56367 77.2516 3.61502 77.4928 3.64437C77.4928 3.64437 77.4928 3.64681 77.4928 3.6517C77.4928 3.65659 77.4928 3.65904 77.4928 3.65904C77.5375 3.66882 77.5844 3.68104 77.6335 3.69572C77.6827 3.71039 77.7162 3.7275 77.734 3.74707C77.7787 3.78619 77.8167 3.82776 77.8479 3.87177C77.8792 3.91579 77.9216 3.97203 77.9752 4.04049L78.471 3.90845C78.5514 3.91823 78.6609 3.94024 78.7993 3.97447C78.9378 4.00871 79.083 4.04049 79.2348 4.06984C79.5654 4.11874 79.8758 4.18476 80.1662 4.2679C80.4565 4.35104 80.7446 4.43173 81.0305 4.50998C81.2717 4.56866 81.5196 4.6249 81.7742 4.6787C82.0288 4.73249 82.2767 4.78873 82.5179 4.84742C82.7948 4.91588 83.0784 4.97946 83.3688 5.03815C83.6591 5.09683 83.9115 5.17508 84.1259 5.27289C84.2956 5.35114 84.4921 5.41227 84.7155 5.45628C84.9388 5.50029 85.0952 5.58099 85.1845 5.69836C84.9165 5.80595 84.673 5.82795 84.4542 5.76438C84.2353 5.7008 84.0053 5.64945 83.7641 5.61033C83.8713 5.64945 83.9338 5.69836 83.9517 5.75704C83.9695 5.81573 84.0365 5.85485 84.1527 5.87441C84.2688 5.90376 84.3939 5.92576 84.5279 5.94043C84.6619 5.95511 84.8048 5.97222 84.9567 5.99178C84.8763 6.10916 84.8897 6.20207 84.9969 6.27054C85.1041 6.33901 85.2828 6.3928 85.5329 6.43192L86.1091 6.21185L85.9483 6.0358L86.8595 6.06514C86.8238 6.12383 86.7925 6.17762 86.7657 6.22653C86.7389 6.27543 86.8327 6.30477 87.0471 6.31455L86.4039 6.63732C86.5826 6.73513 86.7746 6.77915 86.9801 6.76937C87.1856 6.75959 87.3776 6.75469 87.5563 6.75469L89.1107 7.26819C89.075 7.28775 89.0482 7.30243 89.0303 7.31221C89.0125 7.32199 88.9946 7.33177 88.9767 7.34155C88.9053 7.36111 88.8405 7.38067 88.7824 7.40024C88.7243 7.4198 88.7221 7.45403 88.7757 7.50293C88.8293 7.54206 88.9008 7.56896 88.9901 7.58363C89.0795 7.5983 89.1554 7.58607 89.2179 7.54695C89.3162 7.49804 89.41 7.48093 89.4993 7.4956C89.5887 7.51027 89.6825 7.51761 89.7807 7.51761C89.8879 7.52739 89.9996 7.52983 90.1157 7.52494C90.2319 7.52005 90.348 7.51761 90.4641 7.51761C90.5088 7.51761 90.5579 7.52494 90.6115 7.53961C90.6651 7.55428 90.7187 7.56651 90.7723 7.57629C90.5043 7.66432 90.3592 7.73768 90.3368 7.79636C90.3145 7.85505 90.3927 7.95775 90.5713 8.10446C90.7053 8.0849 90.8416 8.06778 90.98 8.05311C91.1185 8.03844 91.2547 8.06045 91.3887 8.11913C91.4155 8.13869 91.4647 8.14358 91.5361 8.1338C91.6076 8.12402 91.6701 8.11913 91.7237 8.11913C91.9828 8.10935 92.1771 8.12891 92.3066 8.17782C92.4362 8.22672 92.5054 8.30986 92.5144 8.42723C92.5233 8.55438 92.559 8.63752 92.6216 8.67664C92.6841 8.71577 92.8315 8.75489 93.0638 8.79401C93.0102 8.87226 92.9566 8.91872 92.903 8.93339C92.8493 8.94806 92.7734 8.94073 92.6751 8.91139C92.3178 8.79401 91.9649 8.67909 91.6165 8.56661C91.2681 8.45413 90.9197 8.3392 90.5713 8.22183C90.4999 8.19249 90.4195 8.16804 90.3301 8.14847C90.2408 8.12891 90.1336 8.09957 90.0085 8.06045L89.9817 8.32453C90.0264 8.33431 90.0599 8.34409 90.0822 8.35387C90.1046 8.36365 90.1247 8.36365 90.1425 8.35387C90.2944 8.35387 90.4239 8.36854 90.5311 8.39789C90.6383 8.42723 90.75 8.47124 90.8661 8.52993C91.0448 8.61796 91.248 8.69131 91.4758 8.75C91.7036 8.80869 91.9203 8.87715 92.1257 8.9554C92.6081 9.14124 93.1017 9.32218 93.6065 9.49824C94.1112 9.6743 94.5646 9.8748 94.9666 10.0998C95.1363 10.2074 95.3194 10.3076 95.516 10.4005C95.7125 10.4934 95.9001 10.5888 96.0788 10.6866C96.1413 10.716 96.1994 10.7502 96.253 10.7893C96.3066 10.8284 96.3557 10.8676 96.4004 10.9067C96.4808 10.9849 96.5478 11.0363 96.6014 11.0607C96.655 11.0852 96.8113 11.1268 97.0704 11.1854C97.1151 11.1072 97.1017 11.0412 97.0302 10.9874C96.9587 10.9336 96.8917 10.8822 96.8292 10.8333C96.6862 10.7257 96.5255 10.623 96.3468 10.5252C96.1681 10.4274 95.9984 10.3247 95.8376 10.2171C95.5428 10.0215 95.2078 9.84791 94.8326 9.6963C94.4574 9.5447 94.0777 9.39554 93.6936 9.24883C93.631 9.21948 93.5685 9.19503 93.506 9.17547C93.4434 9.15591 93.3988 9.12656 93.372 9.08744C93.3362 9.0581 93.3206 9.02631 93.3251 8.99208C93.3295 8.95784 93.3273 8.91628 93.3184 8.86737C93.5238 8.93584 93.7137 8.99452 93.8879 9.04343C94.0621 9.09233 94.2206 9.14613 94.3636 9.20481C94.5244 9.27328 94.674 9.34908 94.8125 9.43222C94.9509 9.51536 95.0872 9.60094 95.2212 9.68897C95.4088 9.78678 95.5919 9.88948 95.7706 9.99707C95.9492 10.1047 96.119 10.2171 96.2798 10.3345C96.5031 10.4812 96.7197 10.6328 96.9297 10.7893C97.1396 10.9458 97.3518 11.1072 97.5662 11.2735L97.124 11.3468L97.7538 11.9484L97.2848 11.963L97.7806 12.2418L97.9548 12.1097C98.1156 12.1782 98.1759 12.2344 98.1357 12.2785C98.0955 12.3225 98.0129 12.364 97.8878 12.4032C98.0039 12.501 98.1178 12.5963 98.2295 12.6893C98.3412 12.7822 98.4506 12.8775 98.5578 12.9754C98.5667 12.9656 98.5801 12.9607 98.598 12.9607C98.6159 12.9607 98.6337 12.9558 98.6516 12.946V12.7553C98.9643 12.814 99.0558 12.902 98.9263 13.0194C98.7968 13.1367 98.8213 13.2297 99 13.2981ZM2.26462 13.8116C2.40755 13.8214 2.51922 13.8116 2.59962 13.7823C2.68002 13.7529 2.74256 13.704 2.78722 13.6356C2.56389 13.6649 2.42989 13.6869 2.38522 13.7016C2.34055 13.7163 2.30035 13.7529 2.26462 13.8116ZM3.25623 9.74765L3.40363 9.79167L3.69843 9.5716C3.5555 9.58138 3.43713 9.59849 3.34333 9.62295C3.24953 9.6474 3.22049 9.68897 3.25623 9.74765ZM6.17745 8.4419L6.25785 8.48592L7.20926 8.06045C6.96806 8.07023 6.76259 8.1118 6.59285 8.18515C6.42312 8.25851 6.28465 8.34409 6.17745 8.4419ZM7.04846 12.6526L6.90106 12.7113L7.10206 12.8286L7.26286 12.7553C7.35219 12.8042 7.39016 12.8237 7.37676 12.814C7.36336 12.8042 7.33879 12.7895 7.30306 12.77L7.04846 12.6526ZM7.87926 7.64965C7.84353 7.66921 7.80556 7.68633 7.76536 7.701C7.72516 7.71567 7.68273 7.73279 7.63806 7.75235C7.63806 7.75235 7.647 7.75968 7.66486 7.77435C7.68273 7.78903 7.69166 7.79147 7.69166 7.78169C7.74526 7.77191 7.79663 7.76213 7.84576 7.75235C7.8949 7.74257 7.9418 7.73279 7.98646 7.723L7.87926 7.64965ZM9.98308 13.5915C9.94735 13.6013 9.91385 13.6111 9.88258 13.6209C9.85131 13.6307 9.83568 13.6356 9.83568 13.6356C9.83568 13.6453 9.84238 13.6576 9.85578 13.6722C9.86918 13.6869 9.88481 13.6991 9.90268 13.7089C9.92055 13.7089 9.94511 13.7065 9.97638 13.7016C10.0076 13.6967 10.0322 13.6942 10.0501 13.6942L9.98308 13.5915ZM19.2426 4.21655C19.1979 4.22633 19.1599 4.24345 19.1287 4.2679C19.0974 4.29235 19.0773 4.31436 19.0684 4.33392C19.0684 4.35348 19.0862 4.37549 19.122 4.39994C19.1577 4.42439 19.1934 4.43662 19.2292 4.43662C19.2828 4.43662 19.3341 4.43173 19.3833 4.42195C19.4324 4.41217 19.4793 4.3975 19.524 4.37793H19.5106C19.5731 4.35837 19.6289 4.33637 19.6781 4.31191C19.7272 4.28746 19.7786 4.26545 19.8322 4.24589C19.6356 4.20677 19.5083 4.18476 19.4503 4.17987C19.3922 4.17498 19.323 4.18721 19.2426 4.21655ZM20.2744 3.48298L20.1672 3.71772C20.194 3.71772 20.2208 3.71772 20.2476 3.71772C20.2744 3.71772 20.3012 3.71772 20.328 3.71772L20.2744 3.48298ZM73.6336 2.79343L73.58 2.85211L74.3036 2.98416C74.2411 2.89613 74.1406 2.85211 74.0021 2.85211C73.8636 2.85211 73.7408 2.83255 73.6336 2.79343ZM79.1946 4.42195L78.8328 4.59801C78.9132 4.61757 78.9869 4.63468 79.0539 4.64935C79.1209 4.66403 79.1812 4.68114 79.2348 4.7007C79.2884 4.72027 79.3398 4.74227 79.3889 4.76673C79.4381 4.79118 79.485 4.81318 79.5296 4.83275L79.6234 4.8034C79.552 4.74472 79.4827 4.68359 79.4157 4.62001C79.3487 4.55644 79.275 4.49041 79.1946 4.42195ZM80.4677 4.87676C80.6195 4.91588 80.7245 4.92567 80.7826 4.9061C80.8406 4.88654 80.8652 4.84253 80.8563 4.77406L80.4677 4.87676ZM86.3369 9.4689C86.1582 9.41999 85.9907 9.37598 85.8344 9.33685C85.6781 9.29773 85.524 9.2635 85.3721 9.23416C85.3453 9.22437 85.3073 9.22682 85.2582 9.24149C85.2091 9.25616 85.1577 9.26839 85.1041 9.27817C85.2649 9.35642 85.4547 9.41266 85.6736 9.44689C85.8925 9.48112 86.1136 9.48846 86.3369 9.4689ZM85.1175 6.87207C85.2247 6.91119 85.3118 6.94053 85.3788 6.96009C85.4458 6.97966 85.5106 6.99922 85.5731 7.01878C85.582 6.95031 85.5508 6.9063 85.4793 6.88674C85.4078 6.86718 85.2872 6.86228 85.1175 6.87207ZM85.6535 7.07747L85.5463 7.09214C85.5731 7.1117 85.5954 7.13126 85.6133 7.15082C85.6312 7.17038 85.6535 7.18995 85.6803 7.20951C85.6982 7.19973 85.716 7.19484 85.7339 7.19484C85.7518 7.19484 85.7652 7.18995 85.7741 7.18016L85.6535 7.07747ZM86.3905 7.03345C86.3548 7.01389 86.29 6.99922 86.1962 6.98944C86.1024 6.97966 85.9974 6.96988 85.8813 6.96009L86.1761 7.29754C86.2386 7.24863 86.3101 7.20462 86.3905 7.16549C86.4709 7.12637 86.4709 7.08236 86.3905 7.03345ZM87.9985 7.00411C87.9717 7.00411 87.9404 7.00411 87.9047 7.00411C87.869 7.00411 87.8332 7.00411 87.7975 7.00411L87.8779 7.18016H87.9985V7.00411ZM88.3335 7.75235L88.2665 7.81103L88.5345 7.89906L88.6283 7.84038L88.3335 7.75235ZM89.0169 10.4225C89.0259 10.4225 89.0393 10.4176 89.0571 10.4079C89.075 10.3981 89.1018 10.3883 89.1375 10.3785L88.8025 10.2612C88.7579 10.3296 88.7601 10.3736 88.8092 10.3932C88.8584 10.4128 88.9276 10.4225 89.0169 10.4225ZM89.2715 7.9284C89.2358 7.91862 89.2001 7.91618 89.1643 7.92107C89.1286 7.92596 89.0929 7.9284 89.0571 7.9284C89.0571 7.9284 89.0549 7.93085 89.0504 7.93574C89.046 7.94063 89.0437 7.94797 89.0437 7.95775V7.97242C89.0973 7.9822 89.1509 7.99198 89.2045 8.00176C89.2581 8.01154 89.3117 8.02132 89.3653 8.0311L89.4189 7.98709C89.4011 7.97731 89.3787 7.96508 89.3519 7.95041C89.3251 7.93574 89.2983 7.9284 89.2715 7.9284ZM89.7539 8.07512C89.611 8.11424 89.5395 8.15336 89.5395 8.19249C89.5395 8.23161 89.5842 8.28052 89.6735 8.3392C89.7807 8.2903 89.841 8.24628 89.8544 8.20716C89.8678 8.16804 89.8343 8.12402 89.7539 8.07512ZM90.5847 10.4372C90.3525 10.3785 90.1202 10.3247 89.8879 10.2758C89.6557 10.2269 89.4234 10.178 89.1911 10.1291C89.1733 10.1291 89.1442 10.1413 89.104 10.1658C89.0638 10.1902 89.0125 10.2171 88.9499 10.2465C89.1554 10.2465 89.3318 10.2489 89.4792 10.2538C89.6266 10.2587 89.7227 10.3052 89.7673 10.3932L89.5797 10.5399C89.7763 10.5986 89.9683 10.6182 90.1559 10.5986C90.3435 10.579 90.5311 10.5644 90.7187 10.5546C90.7009 10.535 90.683 10.513 90.6651 10.4886C90.6473 10.4641 90.6205 10.447 90.5847 10.4372ZM90.7723 10.5692C90.951 10.6475 91.1319 10.7209 91.315 10.7893C91.4982 10.8578 91.6031 10.9507 91.6299 11.0681C91.7282 11.0681 91.8198 11.0632 91.9046 11.0534C91.9895 11.0436 92.0677 11.0436 92.1391 11.0534C92.2195 11.0632 92.3022 11.0827 92.387 11.1121C92.4719 11.1414 92.5679 11.1708 92.6751 11.2001C92.5412 11.0143 92.3245 10.8725 92.0252 10.7746C91.726 10.6768 91.3083 10.6084 90.7723 10.5692ZM93.0638 11.1121L92.9432 11.4055L93.4792 11.3175C93.4256 11.2784 93.3809 11.2344 93.3452 11.1854C93.3094 11.1365 93.2156 11.1121 93.0638 11.1121ZM93.5194 11.3175C93.5462 11.3566 93.573 11.3982 93.5998 11.4422C93.6266 11.4862 93.6623 11.5229 93.707 11.5522C93.7874 11.6109 93.8789 11.6354 93.9817 11.6256C94.0844 11.6158 94.176 11.5718 94.2564 11.4935L93.5194 11.3175ZM96.8024 12.6819C96.6237 12.5841 96.4339 12.4912 96.2329 12.4032C96.0319 12.3151 95.8331 12.2222 95.6366 12.1244L95.5428 12.1391C95.5606 12.1782 95.574 12.2149 95.583 12.2491C95.5919 12.2834 95.6187 12.3151 95.6634 12.3445C95.8152 12.4423 95.9716 12.5377 96.1324 12.6306C96.2932 12.7235 96.454 12.8189 96.6148 12.9167C96.6416 12.9264 96.6751 12.9387 96.7153 12.9533C96.7555 12.968 96.7979 12.9802 96.8426 12.99C96.9408 12.9313 96.9743 12.8751 96.9431 12.8213C96.9118 12.7675 96.8649 12.721 96.8024 12.6819ZM0.844207 14.1491L1.25961 14.2811L0.629805 14.4278L0.844207 14.1491ZM77.4928 3.64437L77.6 3.43897C77.6626 3.47809 77.6715 3.51477 77.6268 3.549C77.5822 3.58324 77.5375 3.61502 77.4928 3.64437ZM92.9432 8.63263C92.9521 8.63263 92.961 8.63018 92.97 8.62529C92.9789 8.6204 92.9878 8.61307 92.9967 8.60329L93.1978 8.66197L93.1576 8.69131L92.9432 8.63263ZM89.6199 7.19484L89.9281 7.10681L90.0085 7.16549L89.7137 7.25352L89.6199 7.19484ZM85.1845 5.87441C85.2113 5.81573 85.2649 5.78639 85.3453 5.78639C85.4257 5.78639 85.515 5.78639 85.6133 5.78639L85.5195 6.02113L85.1845 5.87441ZM83.8981 4.87676V4.84742L84.1527 4.89143L84.1259 4.92078L83.8981 4.87676ZM82.9735 4.62735L82.2633 4.48063C82.2811 4.48063 82.299 4.48063 82.3169 4.48063C82.3347 4.48063 82.3526 4.48063 82.3705 4.48063C82.4777 4.48063 82.5826 4.49286 82.6854 4.51731C82.7881 4.54177 82.8841 4.57844 82.9735 4.62735ZM80.012 3.98181L80.079 3.93779L81.2985 4.18721C81.2895 4.19699 81.2784 4.20677 81.265 4.21655C81.2516 4.22633 81.2404 4.23611 81.2315 4.24589L80.012 3.98181ZM78.7926 3.68838L78.1762 3.60035C78.3102 3.56123 78.4241 3.55634 78.5179 3.58568C78.6117 3.61502 78.7033 3.64926 78.7926 3.68838ZM69.426 1.37031L69.4662 1.31162L69.7878 1.37031L69.761 1.39965L69.426 1.37031ZM66.9603 1.03286L66.9871 0.988851C67.2998 1.00841 67.6035 1.03531 67.8984 1.06954C68.1932 1.10378 68.479 1.14534 68.756 1.19425L68.6622 1.17958L68.622 1.23826L66.9603 1.03286ZM65.3925 0.871479L65.4327 0.798122L66.3305 0.88615L66.2903 0.944836L65.3925 0.871479ZM64.3205 0.680752L64.9905 0.76878C64.8476 0.788342 64.7471 0.795677 64.689 0.790787C64.631 0.785896 64.5081 0.749218 64.3205 0.680752ZM62.4311 0.592724L62.4847 0.504695C62.6634 0.524257 62.8443 0.543818 63.0274 0.56338C63.2105 0.582943 63.3914 0.597614 63.5701 0.607395L63.5567 0.66608C63.3691 0.646519 63.1815 0.631847 62.9939 0.622066C62.8063 0.612286 62.6187 0.602505 62.4311 0.592724ZM61.7745 0.519366C61.7834 0.509585 61.7901 0.499804 61.7946 0.490024C61.7991 0.480243 61.8013 0.470462 61.8013 0.460681L62.1095 0.504695L62.0961 0.534038C62.0425 0.534038 61.9889 0.531592 61.9353 0.526702C61.8817 0.521811 61.8281 0.519366 61.7745 0.519366ZM60.0057 0.372653V0.328639C60.1844 0.33842 60.363 0.348201 60.5417 0.357982C60.7204 0.367763 60.8946 0.377543 61.0643 0.387324V0.44601L60.0057 0.372653ZM58.8131 0.328639L58.8265 0.255282L59.2017 0.284625V0.313968L58.8131 0.328639ZM54.8734 0.137911C54.7573 0.12813 54.6412 0.125685 54.525 0.130575C54.4089 0.135466 54.2928 0.13302 54.1766 0.12324C53.8729 0.12324 53.5714 0.118349 53.2721 0.108568C52.9729 0.0987873 52.6758 0.0938969 52.381 0.0938969C52.2202 0.084116 52.0505 0.0792255 51.8718 0.0792255C51.6932 0.0792255 51.51 0.0792255 51.3224 0.0792255C51.242 0.0792255 51.1638 0.0792255 51.0879 0.0792255C51.012 0.0792255 50.9338 0.0792255 50.8534 0.0792255H50.8802C50.4603 0.0890064 50.0427 0.0963421 49.6273 0.101233C49.2119 0.106123 48.7943 0.103678 48.3744 0.0938969C48.1957 0.0938969 48.0171 0.0938969 47.8384 0.0938969C47.6597 0.0938969 47.4811 0.108568 47.3024 0.137911C47.2934 0.137911 47.2868 0.137911 47.2823 0.137911C47.2778 0.137911 47.2711 0.137911 47.2622 0.137911C47.2086 0.137911 47.1572 0.130575 47.1081 0.115904C47.0589 0.101233 47.012 0.084116 46.9674 0.0645542H46.9808C47.9367 0.0352116 48.8925 0.0156498 49.8484 0.00586891C50.8043 -0.00391197 51.7579 -0.00146675 52.7093 0.0132046C53.6607 0.0278759 54.6144 0.0498829 55.5703 0.0792255C56.5172 0.118349 57.4641 0.167253 58.4111 0.22594V0.299296C57.8215 0.269954 57.2319 0.240611 56.6423 0.211268C56.0527 0.181926 55.4631 0.157473 54.8734 0.137911ZM44.475 0.152582C44.6715 0.103678 44.9752 0.0718899 45.3862 0.0572186C45.7971 0.0425472 46.1053 0.0547733 46.3108 0.0938969C45.8284 0.172144 45.4956 0.221049 45.3125 0.240611C45.1293 0.260173 44.8502 0.23083 44.475 0.152582ZM43.805 0.181926C43.805 0.172144 43.805 0.162363 43.805 0.152582C43.805 0.142801 43.805 0.13302 43.805 0.12324L44.0998 0.137911C44.0998 0.147692 44.0975 0.159918 44.0931 0.17459C44.0886 0.189261 44.0864 0.196597 44.0864 0.196597C44.0417 0.196597 43.9948 0.194152 43.9457 0.189261C43.8965 0.184371 43.8496 0.181926 43.805 0.181926ZM41.9557 0.255282L42.5587 0.181926C42.4515 0.240611 42.3734 0.272399 42.3242 0.277289C42.2751 0.28218 42.1523 0.274844 41.9557 0.255282ZM37.9357 0.56338L37.9089 0.724766C37.8374 0.66608 37.8017 0.629402 37.8017 0.614731C37.8017 0.60006 37.8464 0.582943 37.9357 0.56338ZM36.0597 0.915493C36.0686 0.925274 36.0441 0.935055 35.986 0.944836C35.9279 0.954617 35.8632 0.964397 35.7917 0.974179L35.7649 0.754108L36.7565 0.622066L36.7967 0.680752C36.7431 0.690533 36.6895 0.700314 36.6359 0.710094C36.5823 0.719875 36.5242 0.729656 36.4617 0.739437C36.3545 0.749218 36.2518 0.761444 36.1535 0.776115C36.0552 0.790787 36.024 0.837246 36.0597 0.915493ZM35.0949 1.01819L35.1753 0.871479C35.2378 0.939945 35.2646 0.97907 35.2557 0.988851C35.2468 0.998631 35.1932 1.00841 35.0949 1.01819ZM35.0681 1.01819H35.0949L35.0815 1.03286L35.0681 1.01819ZM35.0547 1.01819C35.0547 1.01819 35.0569 1.01819 35.0614 1.01819C35.0658 1.01819 35.0681 1.01819 35.0681 1.01819L35.0815 1.03286L35.0547 1.01819ZM34.5991 0.974179L35.0547 1.01819C34.9564 1.0671 34.8693 1.08421 34.7934 1.06954C34.7174 1.05487 34.6527 1.02308 34.5991 0.974179ZM34.8135 0.842136L34.5857 0.959507C34.5231 0.930164 34.5008 0.910603 34.5187 0.900822C34.5365 0.891041 34.6348 0.871479 34.8135 0.842136ZM34.5857 0.974179H34.5723L34.5857 0.959507V0.974179ZM31.6779 1.47301C31.8655 1.44366 31.9883 1.38498 32.0464 1.29695C32.1044 1.20892 32.2183 1.15024 32.3881 1.12089C32.4059 1.13067 32.4216 1.13801 32.435 1.1429C32.4484 1.14779 32.4595 1.15513 32.4685 1.16491L32.3211 1.23826L32.7499 1.31162L31.6779 1.47301ZM29.6946 1.50235L29.9492 1.48768L29.9626 1.51702L29.708 1.54636L29.6946 1.50235ZM28.6896 1.76643C28.8058 1.76643 28.9219 1.76154 29.038 1.75176C29.1542 1.74198 29.2703 1.73709 29.3864 1.73709C29.2792 1.78599 29.1676 1.82023 29.0514 1.83979C28.9353 1.85935 28.8147 1.8349 28.6896 1.76643ZM28.6896 1.76643C28.7343 1.70775 28.7812 1.66862 28.8303 1.64906C28.8795 1.6295 29.0202 1.60505 29.2524 1.5757C29.1363 1.61483 29.0336 1.64906 28.9442 1.6784C28.8549 1.70775 28.77 1.73709 28.6896 1.76643ZM26.3848 2.2946C26.3669 2.2946 26.3491 2.28727 26.3312 2.27259C26.3133 2.25792 26.3089 2.25059 26.3178 2.25059C26.3267 2.24081 26.3446 2.23103 26.3714 2.22124C26.3982 2.21146 26.4295 2.20168 26.4652 2.1919C26.4741 2.21146 26.4853 2.22614 26.4987 2.23592C26.5121 2.2457 26.5188 2.25548 26.5188 2.26526C26.5009 2.27504 26.4808 2.28238 26.4585 2.28727C26.4362 2.29216 26.4161 2.2946 26.3982 2.2946C26.3982 2.2946 26.396 2.2946 26.3915 2.2946C26.387 2.2946 26.3848 2.2946 26.3848 2.2946ZM21.6412 3.30692C21.6233 3.17977 21.659 3.09908 21.7484 3.06485C21.8377 3.03061 22.1057 2.99394 22.5524 2.95481C22.3826 3.00372 22.271 3.08196 22.2174 3.18955C22.1638 3.29714 21.9717 3.33627 21.6412 3.30692ZM17.0985 3.98181L17.3129 3.93779L17.3397 3.96714L17.1387 4.01115L17.0985 3.98181ZM16.4419 4.14319L16.7233 4.06984L16.7769 4.11385L16.5223 4.18721L16.4419 4.14319ZM1.19261 10.7306C1.20154 10.7209 1.22164 10.7111 1.25291 10.7013C1.28418 10.6915 1.30428 10.6866 1.31321 10.6866C1.34001 10.6964 1.36234 10.7086 1.38021 10.7233C1.39808 10.738 1.41594 10.7502 1.43381 10.76L1.20601 10.8333C1.19708 10.804 1.19038 10.782 1.18591 10.7673C1.18144 10.7526 1.18368 10.7404 1.19261 10.7306Z" fill="#1AB69D"/>
</svg>
