<svg width="45" height="45" viewBox="0 0 45 45" fill="none" xmlns="http://www.w3.org/2000/svg">
<path d="M30.8 28.5353V25.3647C30.8 23.6136 32.2196 22.1941 33.9706 22.1941C35.018 22.1941 35.9467 22.7019 36.5241 23.4848M40.3118 33.5176C40.3118 31.3928 40.3118 30.3304 39.7502 29.5986C39.6056 29.4102 39.4369 29.2415 39.2485 29.0969C38.5167 28.5353 37.4543 28.5353 35.3295 28.5353H32.6118C30.487 28.5353 29.4246 28.5353 28.6928 29.0969C28.5044 29.2415 28.3357 29.4102 28.1911 29.5986C27.6295 30.3304 27.6295 31.3928 27.6295 33.5176C27.6295 35.6425 27.6295 36.7049 28.1911 37.4366C28.3357 37.6251 28.5044 37.7937 28.6928 37.9383C29.4246 38.5 30.487 38.5 32.6118 38.5H35.3295C37.4543 38.5 38.5167 38.5 39.2485 37.9383C39.4369 37.7937 39.6056 37.6251 39.7502 37.4366C40.3118 36.7049 40.3118 35.6425 40.3118 33.5176Z" stroke="#EEF8EE" stroke-width="2.71765" stroke-linecap="round" stroke-linejoin="round"/>
<path d="M22.1992 38.5C13.6562 38.5 9.38468 38.5 6.73066 35.8467C4.07666 33.1935 4.07666 28.923 4.07666 20.3824V14.8461C4.07666 11.5551 4.07666 9.90955 4.76589 8.67485C5.25721 7.79471 5.98363 7.06846 6.86402 6.5773C8.09909 5.88824 9.74504 5.88824 13.0369 5.88824C15.146 5.88824 16.2004 5.88824 17.1235 6.23431C19.2312 7.02444 20.1003 8.9385 21.0513 10.8401L22.1992 13.1353M14.9502 13.1353H30.8074C34.6254 13.1353 36.5342 13.1353 37.9056 14.0513C38.4993 14.4478 39.0089 14.9574 39.4055 15.5509C40.1194 16.619 40.2772 18.0134 40.312 20.3824" stroke="#EAF3F0" stroke-width="2.71765" stroke-linecap="round"/>
</svg>
