<svg width="45" height="45" viewBox="0 0 45 45" fill="none" xmlns="http://www.w3.org/2000/svg">
<path d="M22.1942 40.3118L18.5707 29.4412H4.07654L7.70007 40.3118H22.1942ZM22.1942 40.3118H29.4412" stroke="#EEF8EE" stroke-width="2.71765" stroke-linecap="round" stroke-linejoin="round"/>
<path d="M22.1943 24.0058V23.0999C22.1943 19.6836 22.1943 17.9754 21.133 16.9142C20.0716 15.8528 18.3635 15.8528 14.9473 15.8528C11.531 15.8528 9.82277 15.8528 8.76151 16.9142C7.7002 17.9754 7.7002 19.6836 7.7002 23.0999V24.0058" stroke="#EEF8EE" stroke-width="2.71765" stroke-linecap="round" stroke-linejoin="round"/>
<path d="M34.8766 24.0059C34.8766 26.0072 33.2543 27.6294 31.253 27.6294C29.2518 27.6294 27.6295 26.0072 27.6295 24.0059C27.6295 22.0046 29.2518 20.3824 31.253 20.3824C33.2543 20.3824 34.8766 22.0046 34.8766 24.0059Z" stroke="#EAF3F0" stroke-width="2.71765"/>
<path d="M18.5707 7.70001C18.5707 9.70119 16.9483 11.3235 14.9471 11.3235C12.946 11.3235 11.3236 9.70119 11.3236 7.70001C11.3236 5.69879 12.946 4.07648 14.9471 4.07648C16.9483 4.07648 18.5707 5.69879 18.5707 7.70001Z" stroke="#EEF8EE" stroke-width="2.71765"/>
<path d="M25.8177 32.1588H36.6883C38.6896 32.1588 40.3119 33.781 40.3119 35.7823V36.6882C40.3119 38.6894 38.6896 40.3117 36.6883 40.3117H34.8766" stroke="#EAF3F0" stroke-width="2.71765" stroke-linecap="round"/>
</svg>
