<svg width="45" height="45" viewBox="0 0 45 45" fill="none" xmlns="http://www.w3.org/2000/svg">
<path d="M20.3824 27.6294H24.006" stroke="#EEF8EE" stroke-width="2.71765" stroke-linecap="round" stroke-linejoin="round"/>
<path d="M22.1942 33.0647V40.3117" stroke="#EEF8EE" stroke-width="2.71765"/>
<path d="M14.9471 40.3117H29.4413" stroke="#EEF8EE" stroke-width="2.71765" stroke-linecap="round"/>
<path d="M16.759 4.07648C12.0023 4.09161 9.43314 4.2328 7.55327 5.5491C6.77421 6.0946 6.0966 6.7722 5.55111 7.55126C4.07666 9.65707 4.07666 12.6276 4.07666 18.5688C4.07666 24.51 4.07666 27.4806 5.55111 29.5864C6.0966 30.3655 6.77421 31.043 7.55327 31.5885C9.65898 33.0629 12.6295 33.063 18.5708 33.063H25.8178C31.759 33.063 34.7295 33.0629 36.8354 31.5885C37.6144 31.043 38.292 30.3655 38.8375 29.5864C40.1538 27.7065 40.2949 25.1372 40.3101 20.3806" stroke="#EEF8EE" stroke-width="2.71765" stroke-linecap="round"/>
<path d="M35.7824 7.96509L35.8966 7.88274C37.8131 6.49899 38.7715 5.80711 39.5417 6.14118C40.3119 6.47525 40.3119 7.58279 40.3119 9.79785V11.0375C40.3119 13.2525 40.3119 14.3601 39.5417 14.6941C38.7715 15.0282 37.8131 14.3363 35.8966 12.9526L35.7824 12.8702M28.5354 16.7588H29.4413C32.4305 16.7588 33.9252 16.7588 34.8537 15.9463C35.7824 15.1337 35.7824 13.8259 35.7824 11.2103V9.62501C35.7824 7.0094 35.7824 5.70161 34.8537 4.88904C33.9252 4.07648 32.4305 4.07648 29.4413 4.07648H28.5354C25.5462 4.07648 24.0515 4.07648 23.1229 4.88904C22.1942 5.70161 22.1942 7.0094 22.1942 9.62501V11.2103C22.1942 13.8259 22.1942 15.1337 23.1229 15.9463C24.0515 16.7588 25.5462 16.7588 28.5354 16.7588Z" stroke="#EAF3F0" stroke-width="2.71765" stroke-linecap="round"/>
</svg>
